<?xml version="1.0" standalone="yes"?>
<svg xmlns="http://www.w3.org/2000/svg" width="2200" height="2200">
<path style="fill:#010101; stroke:none;" d="M0 0L0 2200L2200 2200L2200 0L0 0z"/>
<path style="fill:#c0c0c0; stroke:none;" d="M100 100L100 2100L2100 2100L2100 100L100 100z"/>
<path style="fill:#010101; stroke:none;" d="M217 217L217 1986L1986 1986L1986 217L217 217z"/>
<path style="fill:#c0c0c0; stroke:none;" d="M1652 474C1647.93 465.27 1638.39 458.506 1631 452.6C1619.73 443.599 1605.68 434.278 1591 432.209C1575.7 430.052 1556.88 433.879 1545 444.189C1529.26 457.851 1522.84 483.846 1526.46 504C1528.9 517.565 1535.87 532.976 1547 541.585C1565.93 556.237 1595.73 554.405 1615.83 543.7C1625.94 538.316 1634.46 529.875 1643 522.424C1645.68 520.086 1649.13 514.798 1652.47 513.636C1655.43 512.609 1658.34 517.209 1660 519C1666.61 526.145 1673.59 532.227 1681.42 537.985C1700.15 551.748 1728.42 557.625 1749.83 546.49C1781.65 529.942 1789.99 482.452 1769.24 453.911C1761.59 443.392 1747.65 435.428 1735 432.529C1715.48 428.058 1691.11 437.34 1676.71 450.529C1671.36 455.432 1666.22 460.643 1661.13 465.829C1658.13 468.89 1655.98 472.218 1652 474z"/>
<path style="fill:#010101; stroke:none;" d="M1635 491C1627.85 487.666 1622.69 480.466 1616.71 475.375C1611.46 470.897 1605.42 468.294 1599.42 465.026C1594.77 462.491 1589.32 460.512 1584 460.093C1544.68 456.994 1541.51 523.513 1581 523.996C1585.69 524.053 1590.48 524.107 1594.99 522.615C1602.07 520.27 1609.6 515.211 1615.29 510.538C1621.37 505.536 1633.58 499.275 1635 491M1717 460.468C1703.74 463.012 1689.8 473.24 1680.67 482.753C1678.4 485.117 1672.41 489.531 1672.6 493.145C1672.83 497.598 1680.93 503.085 1684 505.826C1696.31 516.814 1714.93 527.035 1732 523.621C1752.89 519.442 1759.1 491.887 1749.7 474.996C1743.37 463.615 1729.58 458.055 1717 460.468z"/>
<path style="fill:#c0c0c0; stroke:none;" d="M1682 680C1681.9 692.433 1678.04 705.803 1667.7 713.518C1656.74 721.694 1643.28 712.083 1643 700L1630 700C1631.05 707.151 1633.87 715.486 1639.38 720.502C1649.72 729.915 1670.35 726.895 1679.68 717.671C1693.61 703.888 1695.6 680.474 1693.83 662C1692.84 651.6 1689.09 638.241 1680 632.105C1662.54 620.321 1633.02 627.555 1630.13 651.089C1628.7 662.714 1630.68 676.804 1640.33 684.615C1648.84 691.51 1662.38 690.843 1672 687.25C1676.05 685.738 1678.79 682.731 1682 680M1734 626.529C1707.3 632.562 1705.08 666.952 1707.71 689C1708.3 693.918 1708.86 698.253 1710.43 703C1715.21 717.503 1727.83 729.024 1744 725.545C1775.67 718.729 1776.82 675.157 1769.97 650C1765.77 634.576 1750.63 622.772 1734 626.529z"/>
<path style="fill:#010101; stroke:none;" d="M1656 636.519C1640.31 639.947 1636.52 663.641 1646.42 674.856C1650.69 679.7 1659.76 680.873 1665.83 679.74C1678.77 677.325 1684.78 660.549 1680.08 649C1676.12 639.289 1666.16 634.299 1656 636.519M1736 636.519C1727.67 638.348 1723.92 645.31 1721.92 653C1718.11 667.72 1717.05 687.223 1722.39 701.714C1725.77 710.897 1733.53 718.053 1743.83 715.721C1752.06 713.858 1756.17 706.394 1758.12 699C1762.07 684.015 1760.72 666.023 1757.33 651C1754.95 640.422 1746.92 634.121 1736 636.519z"/>
<path style="fill:#c0c0c0; stroke:none;" d="M750 1105L835 1105L857 1105C859.469 1105 863.311 1105.62 865.397 1103.97C867.874 1102.01 867.081 1096.76 866.961 1094C866.523 1084 865.163 1073.81 863.2 1064C854.334 1019.68 825.331 981.305 786 959.134C754.451 941.35 719.739 933.718 684 929.834C665.136 927.784 645.015 926.329 626 928.17C618.607 928.885 611.327 930.621 604 931.701C584.329 934.598 564.277 938.673 546 946.897C511.115 962.595 479.43 986.358 459.986 1020C447.033 1042.41 443 1068.48 443 1094C443 1111.52 444.745 1128.5 451.014 1145C465.655 1183.53 498.658 1211.37 536 1227.3C557.702 1236.56 580.512 1241.95 603 1248.62C621.896 1254.23 640.914 1259.1 660 1264.12C674.325 1267.88 689.161 1270.82 703 1276.2C731.173 1287.17 767.943 1302.27 768 1338C768.006 1342.03 768.159 1346.04 767.255 1350C766.12 1354.96 765.143 1360.4 762.88 1365C751.423 1388.28 723.379 1401 699 1404.29C690.054 1405.49 681.017 1407.29 672 1407.91C661.506 1408.63 651.359 1407.57 641 1406.29C613.997 1402.93 586.565 1395.39 567.089 1374.99C555.922 1363.29 546.855 1348 543.63 1332C542.429 1326.04 542.515 1319.99 541.826 1314C541.554 1311.64 541.077 1308.74 538.697 1307.6C536.232 1306.43 532.649 1307 530 1307L513 1307L452 1307L433 1307C430.764 1307 427.492 1306.53 425.603 1308.03C422.095 1310.81 423.767 1322.96 424.171 1327C425.885 1344.14 428.657 1362.91 435.405 1378.91C442.197 1395.01 450.408 1410.37 461.46 1424C488.937 1457.88 526.875 1477.21 568 1488.71C617.392 1502.52 670.45 1503.71 721 1495.59C761.003 1489.16 802.438 1474.12 833 1446.83C844.567 1436.5 853.253 1424.83 861.669 1412C869.777 1399.64 876.37 1385.52 879.765 1371C884.188 1352.09 885.226 1333.34 884.996 1314C884.861 1302.66 882.371 1290.97 879.625 1280C875.675 1264.22 866.413 1249.59 856.399 1237C809.806 1178.43 732.955 1169.13 665 1151.63C647.171 1147.04 629.61 1141.67 611.999 1136.36C596.667 1131.74 577.734 1125.43 567.765 1112C560.357 1102.02 559.207 1089.05 560.09 1077C560.614 1069.86 563.372 1062.52 566.8 1056.29C580.984 1030.49 614.217 1023 641 1023C679.469 1023 724.732 1030.12 742.035 1070C746.707 1080.77 749.081 1093.36 750 1105M1052 1145L1052 1106C1052 1102.68 1053.35 1095.37 1050.4 1093.03C1048.72 1091.7 1045.99 1092.01 1044 1092L1029 1092L971 1092C965.351 1092 959.648 1091.77 954.005 1092.02C951.488 1092.13 949.131 1092.41 948.318 1095.15C947.18 1098.98 948 1104.03 948 1108L948 1133L948 1216L948 1488L1058 1488L1058 1314L1058 1266C1058 1251.17 1057.8 1236.31 1062.38 1222C1073.13 1188.42 1101.59 1168.99 1136 1169C1147.85 1169 1161.15 1171.06 1171 1178.1C1198.08 1197.45 1197 1236.15 1197 1266L1197 1488L1306 1488L1306 1320C1306 1285.47 1302.87 1249.5 1312.46 1216C1317.28 1199.13 1331.67 1180.48 1348.09 1173.74C1358.85 1169.32 1369.58 1169 1381 1169C1394.26 1169 1408.07 1171.16 1419 1179.25C1446.83 1199.86 1445 1237.87 1445 1269L1445 1488L1554 1488L1554 1287C1554 1247.26 1558.11 1205.5 1546.79 1167C1536.61 1132.38 1511.41 1105.79 1478 1092.61C1461.83 1086.23 1444.13 1084.47 1427 1082.83C1410.95 1081.3 1393.78 1080.75 1378 1084.59C1353.06 1090.66 1331.97 1103.01 1313 1120.17C1307.92 1124.76 1303.15 1129.75 1298.75 1135C1295.43 1138.97 1292.67 1143.63 1288 1146C1287.27 1140.5 1283.88 1136.67 1281.17 1132C1273.38 1118.56 1262.77 1106.98 1249 1099.46C1218.94 1083.05 1183.5 1079.7 1150 1083.71C1137.6 1085.2 1124.31 1087.97 1113 1093.6C1100.29 1099.93 1087.28 1108.21 1077 1118.04C1068.18 1126.47 1061.09 1137.06 1052 1145M449 1734L427 1734C427.043 1749.61 432.509 1766.82 444.089 1777.82C463.921 1796.65 498.833 1800.44 524 1792.9C540.688 1787.9 558.693 1780.11 565.239 1761.96C567.118 1756.75 567.85 1750.51 567.985 1745C568.222 1735.34 566.408 1724.99 560.502 1717C546.909 1698.63 516.928 1693.68 496 1689.74C482.282 1687.16 458.398 1682.14 456.133 1664.96C453.733 1646.76 468.074 1636.44 484 1633.01C507.853 1627.88 537.42 1640.75 538 1668L560 1668C560 1650.29 553.968 1633.74 539 1623.17C531.088 1617.59 521.376 1615.15 512 1613.7C482.019 1609.07 443.052 1616.37 433.785 1650C432.344 1655.23 431.872 1661.65 432.577 1667C433.304 1672.52 434.311 1677.96 436.841 1683C443.216 1695.71 456.027 1701.2 469 1704.73C482.593 1708.44 496.365 1711.39 510 1715C524.281 1718.79 543.669 1725.56 544.405 1743C545.312 1764.51 527.25 1772.81 509 1775.42C481.374 1779.38 450.326 1764.87 449 1734M1147 1616L1147 1642L1168 1642L1168 1616L1147 1616M1201 1616L1201 1792L1222 1792L1222 1759C1222 1754.5 1220.88 1748.15 1223.03 1744.04C1226.69 1737.04 1235.55 1734.34 1239 1727C1245.17 1729.94 1248.32 1736.48 1252 1742C1259.04 1752.56 1266.58 1763.07 1273 1774C1275.93 1779.01 1279.7 1787.69 1284.61 1790.97C1286.92 1792.52 1290.37 1792 1293 1792L1310 1792C1308.11 1783.34 1301.17 1775.83 1296.15 1768.71C1287.36 1756.25 1278.52 1743.25 1271.04 1729.96C1268.29 1725.07 1264.57 1720.88 1261.65 1716.09C1260.73 1714.58 1259.07 1712.84 1259.54 1710.92C1260.65 1706.41 1268.67 1701.15 1271.96 1698.05C1279.93 1690.57 1288.05 1683.29 1296.04 1675.83C1299.77 1672.35 1304.34 1669.37 1307 1665C1298.96 1665 1286.66 1662.68 1279.17 1665.74C1272.45 1668.49 1267 1676.68 1261.83 1681.58C1248.77 1693.96 1236.27 1708.03 1222 1719L1222 1616L1201 1616M1078 1628L1078 1666L1057 1666L1057 1684L1078 1684L1078 1758C1078 1767.27 1076.76 1780.31 1084.61 1787.18C1093.76 1795.19 1112.84 1792 1124 1792L1124 1774C1117.96 1774 1107.35 1776.03 1102.61 1771.49C1096.77 1765.89 1099 1754.3 1099 1747L1099 1684L1124 1684L1124 1666L1099 1666L1099 1628L1078 1628M636 1663.42C621.024 1665.41 607.632 1672.58 598.568 1685C591.432 1694.78 588.963 1707.29 587.83 1719C585.726 1740.75 589.993 1763.83 606.093 1779.91C618.611 1792.4 640.089 1795.91 657 1793.71C673.933 1791.51 689.217 1783.96 699.14 1769.61C711.913 1751.15 712.79 1723.89 706.351 1703C704.288 1696.31 701.932 1689.61 697.585 1684C682.971 1665.11 658.458 1660.44 636 1663.42M752 1682L752 1665C747.718 1665 735.927 1662.94 733.028 1666.6C731.228 1668.88 732 1673.31 732 1676L732 1700L732 1792L753 1792L753 1732C753 1720.95 751.442 1709.08 756.599 1698.91C764.488 1683.36 788.981 1671.98 803.101 1686.52C811.689 1695.36 811 1708.52 811 1720L811 1792L831 1792L831 1732C831 1720.73 829.867 1707.52 834.623 1697C842.529 1679.52 871.031 1673.29 883.607 1689.02C890.267 1697.35 889 1710.95 889 1721L889 1792L909 1792L909 1714C909 1701.05 911.041 1687.22 903.247 1676C893.71 1662.27 871.175 1661.03 856 1663.21C848.165 1664.34 840.866 1669.31 835.093 1674.46C831.908 1677.31 830.196 1680.71 826 1682C825.448 1673.78 818.289 1668.32 811 1665.55C797.095 1660.25 778.407 1661.6 765.615 1669.09C760.119 1672.31 756.632 1677.82 752 1682M936 1704L957 1704C958.579 1684.67 977.489 1677.39 995 1680.46C1007.03 1682.58 1018.31 1690.23 1015.77 1704C1014.02 1713.52 1002.67 1714.94 995 1716.19C981.135 1718.46 966.064 1719.66 953 1725.33C949.436 1726.88 945.419 1727.98 942.44 1730.57C927.187 1743.83 926.919 1772.28 942.029 1785.74C946.576 1789.79 952.159 1791.38 958 1792.55C972.018 1795.37 987.903 1794.79 1000.83 1788.22C1006.82 1785.17 1011.74 1778.9 1018 1777C1018.11 1779.44 1018.32 1781.69 1019.19 1784C1024.44 1797.9 1038.7 1793.52 1050 1792L1050 1775C1047.21 1775.35 1043.78 1776.42 1041.14 1774.96C1034.12 1771.05 1037 1754.66 1037 1748L1037 1702C1037 1691.23 1036.54 1680.1 1027.95 1672.3C1018.38 1663.62 1005.17 1663 993 1663C984.271 1663 974.475 1662.3 966 1664.73C948.06 1669.87 936.051 1685.56 936 1704M1147 1666L1147 1792L1168 1792L1168 1666L1147 1666z"/>
<path style="fill:#010101; stroke:none;" d="M641 1680.51C596.343 1689.67 598.4 1773.65 646 1775.96C649.594 1776.13 653.469 1776.25 657 1775.48C673.23 1771.97 682.609 1758.02 686.169 1743C692.062 1718.14 684.184 1688.46 656.996 1681.14C651.904 1679.77 646.203 1679.45 641 1680.51M1016 1728C1006.96 1728.46 998.035 1732.11 989 1733.28C982.226 1734.16 975.426 1734.32 969 1736.95C964.444 1738.81 959.516 1741.07 956.419 1745.02C949.927 1753.31 952.586 1766.51 961.04 1772.3C965.622 1775.44 971.616 1775.97 977 1776C990.594 1776.06 1007.56 1771.6 1013.69 1758C1017.74 1748.99 1016 1737.68 1016 1728z"/>
</svg>
